<svg width="75" height="10" viewBox="0 0 75 10" fill="none" xmlns="http://www.w3.org/2000/svg">
<rect y="4" width="75" height="2" fill="url(#paint0_diamond_35_40)"/>
<rect x="1" width="73" height="10" rx="5" fill="url(#paint1_radial_35_40)"/>
<path d="M1 5C1 2.23858 3.23858 0 6 0H14V10H6C3.23858 10 1 7.76142 1 5V5Z" fill="url(#paint2_radial_35_40)"/>
<path d="M74 5C74 7.76142 71.7614 10 69 10L61 10L61 5.55967e-08L69 7.54979e-07C71.7614 9.9639e-07 74 2.23858 74 5V5Z" fill="url(#paint3_radial_35_40)"/>
<rect x="12" width="2" height="10" fill="url(#paint4_diamond_35_40)"/>
<rect x="61" width="2" height="10" fill="url(#paint5_diamond_35_40)"/>
<defs>
<radialGradient id="paint0_diamond_35_40" cx="0" cy="0" r="1" gradientUnits="userSpaceOnUse" gradientTransform="translate(41 5) scale(140 3.73333)">
<stop stop-color="#C6C5FF"/>
<stop offset="1" stop-color="#4D4D69"/>
</radialGradient>
<radialGradient id="paint1_radial_35_40" cx="0" cy="0" r="1" gradientUnits="userSpaceOnUse" gradientTransform="translate(36.5 5) scale(37.5 5.13699)">
<stop stop-color="white"/>
<stop offset="1" stop-color="#878787"/>
</radialGradient>
<radialGradient id="paint2_radial_35_40" cx="0" cy="0" r="1" gradientUnits="userSpaceOnUse" gradientTransform="translate(7.5 5) scale(6.5 5)">
<stop stop-color="#FFE500"/>
<stop offset="1" stop-color="#D9C300"/>
</radialGradient>
<radialGradient id="paint3_radial_35_40" cx="0" cy="0" r="1" gradientUnits="userSpaceOnUse" gradientTransform="translate(67.5 5) rotate(-180) scale(6.5 5)">
<stop stop-color="#FFE500"/>
<stop offset="1" stop-color="#D9C300"/>
</radialGradient>
<radialGradient id="paint4_diamond_35_40" cx="0" cy="0" r="1" gradientUnits="userSpaceOnUse" gradientTransform="translate(13 5) rotate(21.8791) scale(2.68348 11.557)">
<stop stop-color="#FF7A7A"/>
<stop offset="1" stop-color="#994949"/>
</radialGradient>
<radialGradient id="paint5_diamond_35_40" cx="0" cy="0" r="1" gradientUnits="userSpaceOnUse" gradientTransform="translate(62 5) rotate(21.8791) scale(2.68348 11.557)">
<stop stop-color="#FF7A7A"/>
<stop offset="1" stop-color="#994949"/>
</radialGradient>
</defs>
</svg>
